<svg xmlns="http://www.w3.org/2000/svg" viewBox="0 0 1200 628" width="1200" height="628">
  <defs>
    <linearGradient id="bgGrad" x1="0%" y1="0%" x2="100%" y2="100%">
      <stop offset="0%" style="stop-color:#0d47a1;stop-opacity:1" />
      <stop offset="50%" style="stop-color:#1565c0;stop-opacity:1" />
      <stop offset="100%" style="stop-color:#311b92;stop-opacity:1" />
    </linearGradient>
    <linearGradient id="cardGrad" x1="0%" y1="0%" x2="0%" y2="100%">
      <stop offset="0%" style="stop-color:#ffffff;stop-opacity:0.12" />
      <stop offset="100%" style="stop-color:#ffffff;stop-opacity:0.04" />
    </linearGradient>
    <linearGradient id="accentGrad" x1="0%" y1="0%" x2="100%" y2="100%">
      <stop offset="0%" style="stop-color:#2196f3;stop-opacity:1" />
      <stop offset="100%" style="stop-color:#7c4dff;stop-opacity:1" />
    </linearGradient>
    <linearGradient id="greenGrad" x1="0%" y1="0%" x2="100%" y2="0%">
      <stop offset="0%" style="stop-color:#10b981;stop-opacity:1" />
      <stop offset="100%" style="stop-color:#06d6a0;stop-opacity:1" />
    </linearGradient>
    <filter id="glow">
      <feGaussianBlur stdDeviation="4" result="blur"/>
      <feMerge><feMergeNode in="blur"/><feMergeNode in="SourceGraphic"/></feMerge>
    </filter>
    <filter id="shadow">
      <feDropShadow dx="0" dy="8" stdDeviation="16" flood-color="#000000" flood-opacity="0.3"/>
    </filter>
    <clipPath id="dashClip">
      <rect x="580" y="80" width="560" height="468" rx="16"/>
    </clipPath>
  </defs>

  <!-- Background -->
  <rect width="1200" height="628" fill="url(#bgGrad)"/>

  <!-- Background grid pattern -->
  <pattern id="grid" width="40" height="40" patternUnits="userSpaceOnUse">
    <path d="M 40 0 L 0 0 0 40" fill="none" stroke="rgba(255,255,255,0.05)" stroke-width="1"/>
  </pattern>
  <rect width="1200" height="628" fill="url(#grid)"/>

  <!-- Decorative blobs -->
  <circle cx="100" cy="100" r="200" fill="rgba(33,150,243,0.15)"/>
  <circle cx="1100" cy="500" r="250" fill="rgba(124,77,255,0.15)"/>
  <circle cx="600" cy="600" r="180" fill="rgba(16,185,129,0.08)"/>

  <!-- Left side — copy -->
  <!-- Logo / brand -->
  <rect x="60" y="60" width="36" height="36" rx="8" fill="url(#accentGrad)"/>
  <text x="78" y="84" font-family="Inter, Arial, sans-serif" font-size="20" font-weight="700" fill="white" text-anchor="middle">T</text>
  <text x="104" y="84" font-family="Inter, Arial, sans-serif" font-size="16" font-weight="700" fill="white">TechUni AI</text>

  <!-- Badge -->
  <rect x="60" y="130" width="160" height="28" rx="14" fill="rgba(16,185,129,0.2)" stroke="#10b981" stroke-width="1"/>
  <circle cx="78" cy="144" r="5" fill="#10b981"/>
  <text x="90" y="149" font-family="Inter, Arial, sans-serif" font-size="12" font-weight="600" fill="#10b981">AI-Powered Platform</text>

  <!-- Headline -->
  <text x="60" y="220" font-family="Inter, Arial, sans-serif" font-size="52" font-weight="800" fill="white">Custom Courses.</text>
  <text x="60" y="280" font-family="Inter, Arial, sans-serif" font-size="52" font-weight="800" fill="white">Built in</text>
  <text x="60" y="340" font-family="Inter, Arial, sans-serif" font-size="52" font-weight="800">
    <tspan fill="url(#accentGrad)">45 Seconds.</tspan>
  </text>

  <!-- Subheadline -->
  <text x="60" y="385" font-family="Inter, Arial, sans-serif" font-size="18" font-weight="400" fill="rgba(255,255,255,0.75)">AI generates training courses tailored to</text>
  <text x="60" y="410" font-family="Inter, Arial, sans-serif" font-size="18" font-weight="400" fill="rgba(255,255,255,0.75)">your organization — your team stays focused</text>
  <text x="60" y="435" font-family="Inter, Arial, sans-serif" font-size="18" font-weight="400" fill="rgba(255,255,255,0.75)">on teaching, not content creation.</text>

  <!-- CTA Button -->
  <rect x="60" y="470" width="200" height="52" rx="10" fill="url(#accentGrad)" filter="url(#glow)"/>
  <text x="160" y="501" font-family="Inter, Arial, sans-serif" font-size="16" font-weight="700" fill="white" text-anchor="middle">Start Free Trial →</text>

  <!-- Stat pill -->
  <rect x="280" y="470" width="240" height="52" rx="10" fill="rgba(255,255,255,0.1)" stroke="rgba(255,255,255,0.2)" stroke-width="1"/>
  <text x="400" y="491" font-family="Inter, Arial, sans-serif" font-size="11" font-weight="500" fill="rgba(255,255,255,0.6)" text-anchor="middle">FROM</text>
  <text x="400" y="512" font-family="Inter, Arial, sans-serif" font-size="14" font-weight="700" fill="white" text-anchor="middle">43 hours → 45 seconds</text>

  <!-- Right side — Dashboard mockup -->
  <!-- Dashboard frame -->
  <rect x="580" y="70" width="560" height="478" rx="16" fill="rgba(255,255,255,0.07)" stroke="rgba(255,255,255,0.15)" stroke-width="1" filter="url(#shadow)"/>

  <!-- Dashboard title bar -->
  <rect x="580" y="70" width="560" height="44" rx="16" fill="rgba(255,255,255,0.1)"/>
  <rect x="580" y="95" width="560" height="20" fill="rgba(255,255,255,0.1)"/>
  <circle cx="604" cy="92" r="6" fill="#ff5f57"/>
  <circle cx="622" cy="92" r="6" fill="#febc2e"/>
  <circle cx="640" cy="92" r="6" fill="#28c840"/>
  <text x="830" y="97" font-family="Inter, Arial, sans-serif" font-size="11" fill="rgba(255,255,255,0.5)" text-anchor="middle">cc.techuni.ai — Course Creator Dashboard</text>

  <!-- Dashboard content area -->
  <rect x="596" y="130" width="528" height="400" rx="8" fill="rgba(13,71,161,0.6)"/>

  <!-- Sidebar -->
  <rect x="596" y="130" width="140" height="400" rx="8" fill="rgba(0,0,0,0.3)"/>
  <rect x="608" y="155" width="118" height="32" rx="6" fill="url(#accentGrad)"/>
  <text x="667" y="175" font-family="Inter, Arial, sans-serif" font-size="11" font-weight="600" fill="white" text-anchor="middle">Dashboard</text>
  <text x="667" y="218" font-family="Inter, Arial, sans-serif" font-size="10" fill="rgba(255,255,255,0.5)" text-anchor="middle">My Courses</text>
  <text x="667" y="248" font-family="Inter, Arial, sans-serif" font-size="10" fill="rgba(255,255,255,0.5)" text-anchor="middle">Create New</text>
  <text x="667" y="278" font-family="Inter, Arial, sans-serif" font-size="10" fill="rgba(255,255,255,0.5)" text-anchor="middle">Team</text>
  <text x="667" y="308" font-family="Inter, Arial, sans-serif" font-size="10" fill="rgba(255,255,255,0.5)" text-anchor="middle">Analytics</text>
  <text x="667" y="338" font-family="Inter, Arial, sans-serif" font-size="10" fill="rgba(255,255,255,0.5)" text-anchor="middle">Settings</text>

  <!-- Main content -->
  <!-- Header row -->
  <text x="756" y="158" font-family="Inter, Arial, sans-serif" font-size="14" font-weight="700" fill="white">Course Creator</text>
  <rect x="1040" y="143" width="72" height="26" rx="6" fill="url(#accentGrad)"/>
  <text x="1076" y="160" font-family="Inter, Arial, sans-serif" font-size="10" font-weight="600" fill="white" text-anchor="middle">+ New Course</text>

  <!-- AI generation panel -->
  <rect x="748" y="170" width="368" height="80" rx="8" fill="rgba(33,150,243,0.2)" stroke="rgba(33,150,243,0.4)" stroke-width="1"/>
  <!-- Animated AI indicator -->
  <circle cx="768" cy="210" r="16" fill="rgba(33,150,243,0.3)" stroke="#2196f3" stroke-width="1"/>
  <!-- AI spark icon -->
  <path d="M762 210 L768 202 L771 208 L776 203 L774 210 L780 210 L768 218 L771 212 Z" fill="#2196f3"/>
  <text x="796" y="203" font-family="Inter, Arial, sans-serif" font-size="11" font-weight="600" fill="white">Generating: "AI Safety for Healthcare Teams"</text>
  <!-- Progress bar -->
  <rect x="796" y="212" width="300" height="6" rx="3" fill="rgba(255,255,255,0.2)"/>
  <rect x="796" y="212" width="210" height="6" rx="3" fill="url(#greenGrad)"/>
  <text x="796" y="236" font-family="Inter, Arial, sans-serif" font-size="10" fill="rgba(255,255,255,0.6)">70% complete · Est. 13 seconds remaining</text>

  <!-- Course cards row -->
  <!-- Card 1 -->
  <rect x="748" y="265" width="112" height="130" rx="8" fill="rgba(255,255,255,0.08)" stroke="rgba(255,255,255,0.1)" stroke-width="1"/>
  <rect x="748" y="265" width="112" height="50" rx="8" fill="rgba(124,77,255,0.4)"/>
  <rect x="748" y="295" width="112" height="20" fill="rgba(124,77,255,0.4)"/>
  <text x="804" y="287" font-family="Inter, Arial, sans-serif" font-size="18" text-anchor="middle">🛡️</text>
  <text x="756" y="330" font-family="Inter, Arial, sans-serif" font-size="9" font-weight="600" fill="white">Cybersecurity</text>
  <text x="756" y="344" font-family="Inter, Arial, sans-serif" font-size="8" fill="rgba(255,255,255,0.5)">Basics</text>
  <rect x="756" y="355" width="48" height="4" rx="2" fill="#10b981"/>
  <text x="756" y="380" font-family="Inter, Arial, sans-serif" font-size="8" fill="rgba(255,255,255,0.4)">12 modules · Active</text>

  <!-- Card 2 -->
  <rect x="872" y="265" width="112" height="130" rx="8" fill="rgba(255,255,255,0.08)" stroke="rgba(255,255,255,0.1)" stroke-width="1"/>
  <rect x="872" y="265" width="112" height="50" rx="8" fill="rgba(16,185,129,0.4)"/>
  <rect x="872" y="295" width="112" height="20" fill="rgba(16,185,129,0.4)"/>
  <text x="928" y="287" font-family="Inter, Arial, sans-serif" font-size="18" text-anchor="middle">📊</text>
  <text x="880" y="330" font-family="Inter, Arial, sans-serif" font-size="9" font-weight="600" fill="white">Data Literacy</text>
  <text x="880" y="344" font-family="Inter, Arial, sans-serif" font-size="8" fill="rgba(255,255,255,0.5)">for Teams</text>
  <rect x="880" y="355" width="62" height="4" rx="2" fill="#10b981"/>
  <text x="880" y="380" font-family="Inter, Arial, sans-serif" font-size="8" fill="rgba(255,255,255,0.4)">8 modules · Active</text>

  <!-- Card 3 -->
  <rect x="996" y="265" width="112" height="130" rx="8" fill="rgba(255,255,255,0.08)" stroke="rgba(255,255,255,0.1)" stroke-width="1"/>
  <rect x="996" y="265" width="112" height="50" rx="8" fill="rgba(249,115,22,0.4)"/>
  <rect x="996" y="295" width="112" height="20" fill="rgba(249,115,22,0.4)"/>
  <text x="1052" y="287" font-family="Inter, Arial, sans-serif" font-size="18" text-anchor="middle">🚀</text>
  <text x="1004" y="330" font-family="Inter, Arial, sans-serif" font-size="9" font-weight="600" fill="white">Leadership</text>
  <text x="1004" y="344" font-family="Inter, Arial, sans-serif" font-size="8" fill="rgba(255,255,255,0.5)">Essentials</text>
  <rect x="1004" y="355" width="36" height="4" rx="2" fill="#f97316"/>
  <text x="1004" y="380" font-family="Inter, Arial, sans-serif" font-size="8" fill="rgba(255,255,255,0.4)">5 modules · Draft</text>

  <!-- Stats row -->
  <rect x="748" y="408" width="108" height="56" rx="8" fill="rgba(255,255,255,0.06)"/>
  <text x="802" y="428" font-family="Inter, Arial, sans-serif" font-size="18" font-weight="800" fill="white" text-anchor="middle">47</text>
  <text x="802" y="448" font-family="Inter, Arial, sans-serif" font-size="9" fill="rgba(255,255,255,0.5)" text-anchor="middle">Courses Created</text>

  <rect x="868" y="408" width="108" height="56" rx="8" fill="rgba(255,255,255,0.06)"/>
  <text x="922" y="428" font-family="Inter, Arial, sans-serif" font-size="18" font-weight="800" fill="#10b981" text-anchor="middle">342</text>
  <text x="922" y="448" font-family="Inter, Arial, sans-serif" font-size="9" fill="rgba(255,255,255,0.5)" text-anchor="middle">Active Learners</text>

  <rect x="988" y="408" width="108" height="56" rx="8" fill="rgba(255,255,255,0.06)"/>
  <text x="1042" y="428" font-family="Inter, Arial, sans-serif" font-size="18" font-weight="800" fill="#2196f3" text-anchor="middle">98%</text>
  <text x="1042" y="448" font-family="Inter, Arial, sans-serif" font-size="9" fill="rgba(255,255,255,0.5)" text-anchor="middle">Completion Rate</text>

  <!-- Bottom domain watermark -->
  <text x="600" y="595" font-family="Inter, Arial, sans-serif" font-size="13" font-weight="500" fill="rgba(255,255,255,0.35)">cc.techuni.ai</text>
</svg>
